<?xml version="1.0" encoding="UTF-8"?>
<svg id="Calque_1" data-name="Calque 1" xmlns="http://www.w3.org/2000/svg" viewBox="0 0 546 427.5">
  <defs>
    <style>
      .cls-1 {
        font-family: Anton-Regular, Anton;
        font-size: 200px;
      }

      .cls-1, .cls-2 {
        fill: #fff;
      }

      .cls-2, .cls-3 {
        stroke-width: 0px;
      }

      .cls-3 {
        fill: #1d1d1b;
      }
    </style>
  </defs>
  <g>
    <g>
      <path class="cls-2" d="M41.41,187.5c-12.44,0-22.45-3.87-30.03-11.62-7.58-7.75-11.38-18.59-11.38-32.52v-79.3c0-16.67,3.3-29.43,9.91-38.28,6.61-8.85,17.37-13.28,32.28-13.28,8.14,0,15.38,1.5,21.73,4.49,6.35,3,11.34,7.47,14.99,13.43,3.65,5.96,5.47,13.46,5.47,22.51v29.69h-34.18v-25.39c0-5.14-.65-8.61-1.95-10.4-1.3-1.79-3.32-2.69-6.05-2.69-3.19,0-5.34,1.16-6.45,3.47-1.11,2.31-1.66,5.39-1.66,9.23v86.04c0,4.75.7,8.11,2.1,10.06,1.4,1.95,3.4,2.93,6.01,2.93,2.93,0,5-1.2,6.2-3.61,1.2-2.41,1.81-5.53,1.81-9.38v-30.96h34.57v32.52c0,15.1-3.81,26.06-11.43,32.86-7.62,6.8-18.26,10.21-31.93,10.21Z"/>
      <path class="cls-2" d="M185.45,185.94V14.06h45.41c9.5,0,17.04,2.12,22.61,6.35,5.57,4.23,9.55,10.25,11.96,18.07,2.41,7.81,3.61,17.12,3.61,27.93s-1.01,19.48-3.03,27.2c-2.02,7.71-5.62,13.69-10.79,17.92-5.18,4.23-12.52,6.35-22.02,6.35h-13.96v68.07h-33.79ZM219.24,87.01h1.95c6.38,0,10.29-1.79,11.72-5.37,1.43-3.58,2.15-8.85,2.15-15.82,0-6.51-.7-11.54-2.1-15.09-1.4-3.55-4.7-5.32-9.91-5.32h-3.81v41.6Z"/>
      <path class="cls-2" d="M279.88,185.94V14.06h34.18v61.43h16.21V14.06h34.18v171.88h-34.18v-77.93h-16.21v77.93h-34.18Z"/>
      <path class="cls-2" d="M379.69,185.94V14.06h68.75v33.2h-33.79v33.5h32.42v32.32h-32.42v39.36h36.04v33.5h-71Z"/>
      <path class="cls-2" d="M462.01,185.94V14.06h52.73c8.79,0,15.43,2,19.92,6.01s7.5,9.6,9.03,16.8c1.53,7.19,2.29,15.64,2.29,25.34s-1.19,16.86-3.56,22.46c-2.38,5.6-6.85,9.47-13.43,11.62,5.4,1.11,9.19,3.79,11.38,8.06,2.18,4.26,3.27,9.78,3.27,16.55v65.04h-33.89v-67.29c0-5.01-1.03-8.12-3.08-9.33-2.05-1.2-5.36-1.81-9.91-1.81v78.42h-34.77ZM496.97,77.73h8.3c4.75,0,7.13-5.18,7.13-15.53,0-6.7-.52-11.1-1.56-13.18-1.04-2.08-3-3.12-5.86-3.12h-8.01v31.84Z"/>
    </g>
    <g>
      <path class="cls-2" d="M1.04,425.94v-171.88h52.73c8.79,0,15.43,2,19.92,6.01s7.5,9.6,9.03,16.8c1.53,7.19,2.29,15.64,2.29,25.34s-1.19,16.86-3.56,22.46c-2.38,5.6-6.85,9.47-13.43,11.62,5.4,1.11,9.19,3.79,11.38,8.06,2.18,4.26,3.27,9.78,3.27,16.55v65.04h-33.89v-67.29c0-5.01-1.03-8.12-3.08-9.33-2.05-1.2-5.36-1.81-9.91-1.81v78.42H1.04ZM36.01,317.73h8.3c4.75,0,7.13-5.18,7.13-15.53,0-6.7-.52-11.1-1.56-13.18-1.04-2.08-3-3.12-5.86-3.12h-8.01v31.84Z"/>
      <path class="cls-2" d="M137.37,427.5c-13.74,0-24.24-4.15-31.49-12.45-7.26-8.3-10.89-20.3-10.89-35.99v-81.64c0-14.71,3.6-25.88,10.79-33.5,7.19-7.62,17.72-11.43,31.59-11.43M225.37,252.5c13.87,0,24.4,3.81,31.59,11.43,7.19,7.62,10.79,18.78,10.79,33.5v81.64c0,15.69-3.63,27.69-10.89,35.99-7.26,8.3-17.76,12.45-31.49,12.45M224.67,395.86c5.21,0,7.81-5.04,7.81-15.14v-83.89c0-8.46-2.54-12.7-7.62-12.7M136.86,284.14c-5.73,0-8.59,4.33-8.59,12.99v83.79c0,5.34.65,9.16,1.95,11.47,1.3,2.31,3.45,3.47,6.45,3.47M225.37,427.5h-88v-175h88v175Z"/>
      <path class="cls-2" d="M317.07,427.5c-24.55,0-36.82-17.58-36.82-52.73v-74.12c0-32.09,14.06-48.14,42.19-48.14,11.59,0,20.47,2.33,26.66,6.98,6.18,4.66,10.45,11.44,12.79,20.36,2.34,8.92,3.52,19.79,3.52,32.62h-33.59v-15.23c0-3.71-.5-6.82-1.51-9.33-1.01-2.5-3.11-3.76-6.3-3.76-3.97,0-6.59,1.33-7.86,4-1.27,2.67-1.9,5.6-1.9,8.79v83.3c0,4.62.6,8.38,1.81,11.28,1.2,2.9,3.56,4.35,7.08,4.35s6.07-1.45,7.28-4.35c1.2-2.9,1.81-6.72,1.81-11.47v-24.51h-9.18v-29.69h41.99v100.1h-13.77l-5.86-14.45c-5.99,10.68-15.43,16.02-28.32,16.02Z"/>
      <path class="cls-2" d="M418.34,427.5c-14.32,0-24.87-4.02-31.64-12.06-6.77-8.04-10.16-19.87-10.16-35.5v-125.88h33.4v124.51c0,2.87.16,5.62.49,8.25.33,2.64,1.07,4.8,2.25,6.49,1.17,1.69,3.06,2.54,5.66,2.54s4.59-.83,5.76-2.49,1.9-3.82,2.2-6.49c.29-2.67.44-5.44.44-8.3v-124.51h33.4v125.88c0,15.62-3.39,27.46-10.16,35.5-6.77,8.04-17.32,12.06-31.64,12.06Z"/>
      <path class="cls-2" d="M473.32,425.94v-171.88h68.75v33.2h-33.79v33.5h32.42v32.32h-32.42v39.36h36.04v33.5h-71Z"/>
    </g>
  </g>
  <rect class="cls-3" x="136.17" y="284.14" width="89.79" height="111.72"/>
  <polygon class="cls-2" points="212.83 303.81 140.69 342.93 182.94 342.64 193.46 383.56 212.83 303.81"/>
  <text class="cls-1" transform="translate(110.52 185.94)"><tspan x="0" y="0">I</tspan></text>
</svg>